# xmcd database file
#
# Track frame offsets:
# 150
# 15264
# 30662
# 45619
# 60230
# 73770
# 89137
# 103212
# 117035
# 131330
# 144806
# 158220
# 172137
# 184511
# 196696
#
# Disc length: 2785 seconds
#
# Revision: 1
# Processed by: cddbd v1.4PL0 Copyright (c) Steve Scherf et al.
# Submitted via: CD-Runner 2003.05
#
DISCID=c00adf0f
DTITLE=Many - Women's Railroad Blues
DYEAR=1980
DGENRE=blues
TTITLE0=Freight Train Blues
TTITLE1=Freight Train Blues
TTITLE2=Chicago Bound Blues
TTITLE3=Choo Choo Blues
TTITLE4=Railroad Blues
TTITLE5=The L&N Blues
TTITLE6=Panama Limited Blues
TTITLE7=Panama Limited Blues
TTITLE8=Mail Train Blues
TTITLE9=Mr. Brakeman Let Me Ride Your Train
TTITLE10=T N and O Blues
TTITLE11=I Hate That Train Called The M and O
TTITLE12=He Caught That B and O
TTITLE13=This Train
TTITLE14=Cannon Ball
EXTD=Trixie Smith (1,4,5) -  Clara Smith (2,6) -  Bessie Smith (3);Bertha Chippie Hill - Ada Brown - Sippie Wallace - Martha Copeland - Bessie Jackson - Lucille Bogan - Blue Lou Barker -  Sister Rosetta Thorpe - Nora Lee King
EXTT0=
EXTT1=
EXTT2=
EXTT3=
EXTT4=
EXTT5=
EXTT6=
EXTT7=
EXTT8=
EXTT9=
EXTT10=
EXTT11=
EXTT12=
EXTT13=
EXTT14=
PLAYORDER=
